PathFileType	4	(X/Y/Z)	C:\Users\Basilio\Documents\Thesis Gigler\squatting_fais\c3dfiles\041\SJ_pre3\markers_experimental.trc
DataRate	CameraRate	NumFrames	NumMarkers	Units	OrigDataRate	OrigDataStartFrame	OrigNumFrames
200.000000	200.000000	4	62	mm	200.000000	419	1679
Frame#	Time	FHD			LBHD			RBHD			C7			T10			CLAV			LSHO			LUUPA			LMUPA			LDUPA			LLEP			LMEP			LRAD			LUL			LRFIN			RSHO			RUPA1			RMUPA			RDUPA			RLEP			RMEP			RRAD			RUL			RUFIN			LASI			RASI			USACR			LSACR			RSACR			LTHI1			LTHI2			LTHI3			LTHI4			LLFC			LMFC			LTIB1			LTIB2			LTIB3			LTIB4			LLMAL			LMMAL			LHEE			LMT1			LMT2			LMT5			RTHI			RTHI2			RTHI3			RTHI4			RLFC			RMFC			RTIB1			RTIB2			RTIB3			RTIB4			RLMAL			RMMAL			RHEE			RMT1			RMT2			RMT5			*61			
		X1	Y1	Z1	X2	Y2	Z2	X3	Y3	Z3	X4	Y4	Z4	X5	Y5	Z5	X6	Y6	Z6	X7	Y7	Z7	X8	Y8	Z8	X9	Y9	Z9	X10	Y10	Z10	X11	Y11	Z11	X12	Y12	Z12	X13	Y13	Z13	X14	Y14	Z14	X15	Y15	Z15	X16	Y16	Z16	X17	Y17	Z17	X18	Y18	Z18	X19	Y19	Z19	X20	Y20	Z20	X21	Y21	Z21	X22	Y22	Z22	X23	Y23	Z23	X24	Y24	Z24	X25	Y25	Z25	X26	Y26	Z26	X27	Y27	Z27	X28	Y28	Z28	X29	Y29	Z29	X30	Y30	Z30	X31	Y31	Z31	X32	Y32	Z32	X33	Y33	Z33	X34	Y34	Z34	X35	Y35	Z35	X36	Y36	Z36	X37	Y37	Z37	X38	Y38	Z38	X39	Y39	Z39	X40	Y40	Z40	X41	Y41	Z41	X42	Y42	Z42	X43	Y43	Z43	X44	Y44	Z44	X45	Y45	Z45	X46	Y46	Z46	X47	Y47	Z47	X48	Y48	Z48	X49	Y49	Z49	X50	Y50	Z50	X51	Y51	Z51	X52	Y52	Z52	X53	Y53	Z53	X54	Y54	Z54	X55	Y55	Z55	X56	Y56	Z56	X57	Y57	Z57	X58	Y58	Z58	X59	Y59	Z59	X60	Y60	Z60	X61	Y61	Z61	X62	Y62	Z62	

420	2.095	-175.5802612304688	1721.0517578125	-912.6313476562502	-357.7770385742188	1679.328002929688	-993.5780029296877	-340.5345764160157	1676.793579101563	-840.7064208984377	-418.4608764648439	1522.214111328125	-932.2028808593752	-449.475555419922	1205.989868164063	-935.9709472656252	-263.1334838867188	1457.760498046875	-934.3582153320315	-342.8376159667969	1518.554443359375	-1104.70751953125	-413.9166564941407	1385.14599609375	-1239.991333007813	-394.3368225097657	1339.430053710938	-1239.988037109375	-441.0798339843751	1334.389526367188	-1279.012817382813	-456.2578125000001	1289.025756835938	-1302.677001953125	-509.2705383300782	1252.530395507813	-1236.476684570313	-369.8103332519532	1085.580078125	-1147.012939453125	-358.4801635742188	1047.0107421875	-1209.607055664063	-319.8227539062501	1064.203125	-1113.069091796875	-335.2416992187501	1509.535278320313	-764.8098754882814	-397.1516418457032	1365.890014648438	-604.0014038085939	-355.7458190917969	1337.045532226563	-611.1333007812501	-381.2514038085938	1305.595947265625	-569.4902343750001	-377.9450683593751	1256.958251953125	-551.9909667968751	-454.3671875000001	1234.514526367188	-602.5020751953126	-366.8799438476563	1061.86669921875	-720.1830444335939	-324.4866333007813	1052.60009765625	-763.4197387695314	-336.4467773437501	1017.37744140625	-665.6411132812501	-282.3863830566407	1005.795288085938	-1048.451171875	-286.5351257324219	1000.322509765625	-831.3027954101565	-459.393768310547	1095.886352539063	-938.5283203125002	-476.126922607422	1071.016357421875	-965.1762695312502	-478.4030761718751	1071.862426757813	-910.386413574219	-412.7421875000001	817.2881469726565	-1139.924194335938	-374.2513732910157	742.7905273437501	-1151.9921875	-326.9427185058594	747.8623046875001	-1144.291015625	-399.4298706054689	686.6854858398439	-1144.863647460938	-366.3000793457032	512.2708740234376	-1158.515258789063	-351.2288208007813	475.2186584472657	-1045.624877929688	-336.7657470703126	315.2151794433594	-1136.696044921875	-387.5235290527345	284.2233276367188	-1204.569580078125	-350.5462341308594	275.7331542968751	-1180.310546875	-352.0711059570313	193.9152984619141	-1160.706665039063	-414.8906250000001	103.8627014160157	-1214.492431640625	-372.9844055175782	102.4391479492188	-1133.7080078125	-471.4768371582032	53.71277236938478	-1181.570678710938	-254.7744293212891	59.10268020629884	-1161.41259765625	-248.7705535888672	60.3425750732422	-1206.346557617188	-289.4044494628907	37.85680389404298	-1262.753662109375	-401.3865051269532	759.3783569335939	-738.5719604492189	-360.4916076660157	707.6173706054689	-731.6594848632814	-327.6553649902344	710.8619384765626	-735.9586181640626	-382.7461547851563	626.3228759765626	-742.5610351562501	-368.3709106445313	502.0866699218751	-733.0690307617189	-350.7487487792969	475.2173156738282	-848.142028808594	-335.5199890136719	334.0307312011719	-726.9838256835939	-420.0407714843751	261.4353332519532	-704.5645751953126	-373.0424804687501	257.9550781250001	-705.5513916015626	-351.8010253906251	207.0299835205079	-729.5733642578126	-410.628387451172	94.12497711181642	-705.9685668945314	-380.9460754394532	102.3886795043946	-785.6821289062502	-465.2089233398439	49.18957519531251	-752.9715576171876	-247.1895751953126	53.52605438232423	-754.6745605468751	-246.6287078857422	58.05517578125001	-702.3837890625001	-291.8002319335938	37.05206680297852	-653.8630981445314	-4216.794433593751	853.1053466796877	-3944.624267578126	
421	2.1	-176.4671325683594	1721.759521484375	-912.8115844726565	-358.4493713378907	1679.036499023438	-993.4776000976565	-341.5695190429688	1676.679443359375	-840.700134277344	-418.650848388672	1522.105590820313	-932.2432861328127	-449.3888549804689	1205.913696289063	-936.1260986328127	-263.1809387207032	1457.721923828125	-934.5087890625002	-342.8735961914063	1518.370483398438	-1104.8818359375	-413.9927062988282	1384.780151367188	-1240.0625	-394.343963623047	1339.166625976563	-1240.1201171875	-441.1077575683595	1333.95751953125	-1279.048095703125	-456.2273559570314	1288.6767578125	-1302.760131835938	-509.2749633789064	1252.1875	-1236.503784179688	-369.7831115722657	1085.160400390625	-1147.150634765625	-358.3160095214844	1046.520141601563	-1209.736083984375	-319.7616882324219	1063.790649414063	-1113.150146484375	-335.3311462402344	1509.362426757813	-764.8527221679689	-396.7334289550782	1365.55517578125	-603.9650268554689	-355.5961608886719	1336.7529296875	-611.1206054687501	-380.9045410156251	1305.287841796875	-569.4403686523439	-377.6070861816407	1256.738525390625	-551.9180908203126	-454.162567138672	1234.322021484375	-602.4328613281251	-366.7806396484376	1061.6279296875	-720.1849975585939	-324.5299987792969	1052.446533203125	-763.4163818359376	-336.3436889648438	1017.009643554688	-665.6773071289064	-282.3396606445313	1005.290588378906	-1048.306518554688	-286.4528808593751	1000.2529296875	-831.3450927734377	-459.3246459960939	1095.8427734375	-938.5650024414065	-476.0486450195314	1070.923217773438	-965.2082519531252	-478.4781188964845	1071.875854492188	-910.4395141601565	-412.8924560546876	817.257995605469	-1139.81884765625	-374.4805603027344	742.7887573242189	-1151.871215820313	-327.2103881835938	747.8876953125001	-1144.13916015625	-399.8374633789064	686.6973876953126	-1144.799682617188	-366.5478515625001	512.2369384765626	-1158.524047851563	-351.7244567871094	475.2843017578126	-1045.693237304688	-336.9554138183594	314.9125671386719	-1136.68701171875	-387.526336669922	284.2428588867188	-1204.741821289063	-350.6091613769532	275.7152099609376	-1180.32177734375	-352.4033813476563	193.9078216552735	-1160.59375	-414.7077941894532	103.5656509399414	-1214.682861328125	-373.0671386718751	102.4229431152344	-1133.86474609375	-471.5567321777345	53.706356048584	-1181.757934570313	-254.7518463134766	59.14934539794923	-1161.47705078125	-248.7747955322266	60.4177589416504	-1206.400512695313	-289.4965515136719	37.82355117797852	-1262.784545898438	-401.1289978027345	759.4736938476564	-738.3592529296876	-360.3999633789063	707.5895996093751	-731.5893554687501	-327.4641723632813	710.8884277343751	-735.8819580078126	-382.6132507324219	626.3250732421876	-742.2695312500001	-368.1740722656251	502.0726318359376	-732.9425048828126	-350.7466125488282	475.2353820800782	-848.0557861328127	-335.2920227050782	333.9359436035157	-726.8889770507814	-420.0460815429689	261.4811706542969	-704.4080200195314	-372.9572753906251	257.9262695312501	-705.4944458007814	-351.7653808593751	207.0065612792969	-729.5297241210939	-410.6643676757814	94.11454010009767	-705.9591674804689	-380.9549560546876	102.411003112793	-785.6262207031252	-465.2115783691407	49.19289398193361	-752.9677734375001	-247.2480163574219	53.54610824584962	-754.6748046875001	-246.8730010986329	58.18471527099611	-702.3040771484376	-291.8311462402344	37.06817626953126	-653.8721923828126	-4216.780761718751	853.0633544921877	-3944.544189453126	
422	2.105	-177.3598022460938	1722.335693359375	-912.7065429687502	-359.1226196289063	1678.701904296875	-993.4939575195315	-342.4694824218751	1676.404663085938	-840.6040649414065	-418.7369689941407	1521.95703125	-932.3569946289065	-449.3634643554689	1205.877319335938	-936.2220458984377	-263.1958007812501	1457.692993164063	-934.5728149414065	-343.0133361816407	1518.203979492188	-1105.081787109375	-414.0030517578126	1384.437133789063	-1240.195556640625	-394.3186645507814	1338.85791015625	-1240.224487304688	-441.0957946777345	1333.638427734375	-1279.121826171875	-456.3029785156251	1288.374267578125	-1302.824096679688	-509.1980590820314	1251.801025390625	-1236.507202148438	-369.6896362304688	1084.829956054688	-1147.261352539063	-358.1731567382813	1046.175537109375	-1209.856811523438	-319.6008911132813	1063.35498046875	-1113.2451171875	-335.4183349609376	1509.223388671875	-764.9214477539064	-396.556854248047	1365.408935546875	-604.0037841796876	-355.4372863769532	1336.459594726563	-611.0363769531251	-380.6328735351563	1305.095458984375	-569.5032348632814	-377.3795166015626	1256.66650390625	-551.9043579101564	-453.9835815429689	1234.199829101563	-602.3842773437501	-366.7252502441407	1061.437255859375	-720.1962280273439	-324.2953186035157	1052.302124023438	-763.1848754882814	-336.3130493164063	1016.820678710938	-665.6510620117189	-282.3919067382813	1004.817138671875	-1048.241455078125	-286.4563598632813	1000.173645019531	-831.3544921875002	-459.3316345214845	1095.850219726563	-938.5655517578127	-476.0396118164064	1070.935668945313	-965.209899902344	-478.4861755371095	1071.875	-910.4441528320315	-413.1018066406251	817.330017089844	-1139.772827148438	-374.6530761718751	742.9060668945314	-1151.849731445313	-327.4616699218751	747.8360595703126	-1144.0654296875	-400.1832580566407	686.7482910156251	-1144.87939453125	-366.7364807128907	512.2496337890626	-1158.537353515625	-352.4107666015626	475.3643798828126	-1045.636596679688	-337.1380615234376	314.9656677246094	-1136.670166015625	-387.5827636718751	284.2185974121094	-1204.89599609375	-350.7143859863282	275.7742614746094	-1180.282470703125	-352.6302490234376	193.925277709961	-1160.469482421875	-415.0835266113282	103.7394180297852	-1214.841796875	-373.1077270507813	102.4739608764649	-1134.013061523438	-471.2379150390626	53.29358673095705	-1181.981079101563	-254.8359527587891	59.18161392211915	-1161.466186523438	-248.7971649169922	60.40188217163087	-1206.415161132813	-289.4962768554688	37.85699462890626	-1262.8369140625	-400.9755859375001	759.4931030273439	-738.1991577148439	-360.2291870117188	707.5918579101564	-731.5032958984376	-327.1451416015626	710.9169921875001	-735.9683837890626	-382.3427734375001	626.3385009765626	-742.1812133789064	-368.0627441406251	502.072479248047	-732.8822021484376	-350.7602844238282	475.2569274902345	-848.0292968750002	-335.4257812500001	334.0287780761719	-726.8810424804689	-420.0060119628907	261.4954528808594	-704.3791503906251	-372.9074707031251	257.9346008300782	-705.4531250000001	-351.6519165039063	206.9802551269532	-729.5631713867189	-410.6679077148439	94.11255645751955	-705.9451904296876	-380.9470520019532	102.490966796875	-785.566345214844	-465.2317504882814	49.16889953613283	-752.9899902343751	-247.2216796875001	53.55749893188478	-754.6988525390626	-246.7842254638672	58.1290626525879	-702.3168334960939	-291.8388977050782	37.09095764160157	-653.8549194335939	-4217.351562500001	853.195983886719	-3944.661132812501	
423	2.11	-178.3441162109375	1722.912231445313	-912.5087890625002	-359.9996643066407	1678.563354492188	-993.5968017578127	-343.0724792480469	1676.285888671875	-840.6547851562502	-418.9302062988282	1521.98876953125	-932.4843750000002	-449.3429260253907	1205.88037109375	-936.2786254882815	-263.2536621093751	1457.76171875	-934.7429809570315	-343.1472473144532	1518.121459960938	-1105.261840820313	-414.0311584472657	1384.10498046875	-1240.316284179688	-394.399871826172	1338.610229492188	-1240.269165039063	-441.1263427734376	1333.32861328125	-1279.252075195313	-456.113006591797	1288.026000976563	-1302.8212890625	-509.0149230957032	1251.435180664063	-1236.515502929688	-369.6916198730469	1084.503173828125	-1147.336669921875	-358.1749267578126	1045.81591796875	-1209.938354492188	-319.5296325683594	1062.868774414063	-1113.301513671875	-335.4568481445313	1509.128540039063	-764.9931640625001	-396.2625427246095	1365.16015625	-604.0932006835939	-355.0595092773438	1336.231079101563	-611.2407836914064	-380.4128112792969	1304.919189453125	-569.5082397460939	-376.9960937500001	1256.583374023438	-552.0576171875001	-453.7020874023439	1234.064575195313	-602.3762817382814	-366.6497192382813	1061.232055664063	-720.2309570312501	-324.1854858398438	1052.072631835938	-763.0838012695314	-336.1965026855469	1016.750793457031	-665.7301025390626	-282.2727355957032	1004.239929199219	-1048.239135742188	-286.3623046875001	1000.078735351563	-831.3638305664065	-459.276580810547	1095.918334960938	-938.5649414062502	-476.0284729003907	1071.0009765625	-965.2283325195315	-478.3218078613282	1071.885864257813	-910.4057617187502	-413.0874328613282	817.4138793945315	-1139.7509765625	-374.7733764648438	742.8740234375001	-1151.576049804688	-327.6453857421876	747.8457641601564	-1143.89501953125	-400.3941040039064	686.7721557617189	-1144.9267578125	-367.0260620117188	512.3051757812501	-1158.537963867188	-352.9671630859376	475.4373168945314	-1045.677124023438	-337.4035949707032	314.9950866699219	-1136.600830078125	-387.7427978515626	284.1717834472657	-1205.032958984375	-350.9433898925782	275.7388000488282	-1180.190795898438	-352.7293090820313	193.9143676757813	-1160.472534179688	-415.1104125976564	103.6834793090821	-1214.960327148438	-373.1935119628907	102.5111618041992	-1134.094970703125	-471.5444335937501	53.61146163940431	-1181.9287109375	-254.8356628417969	59.17651367187501	-1161.486206054688	-248.8677215576172	60.44396591186525	-1206.4375	-289.4721374511719	37.83177566528321	-1262.835571289063	-400.7426147460939	759.4738159179689	-738.0685424804689	-359.9591064453126	707.5977172851564	-731.4764404296876	-326.9842224121094	710.9368896484376	-735.9735107421876	-382.1403503417969	626.2882080078126	-742.0128173828126	-367.9865112304688	502.0552368164064	-732.8519287109376	-350.0117797851563	475.0149230957032	-847.8554687500002	-335.3886718750001	334.0438232421876	-726.8454589843751	-419.8543395996095	261.5497741699219	-704.5296630859376	-372.8651428222657	257.9574279785157	-705.4544677734376	-351.6131896972657	206.9273986816407	-729.5877685546876	-410.6852111816407	94.1517791748047	-705.9020385742189	-380.9868469238282	102.4309463500977	-785.5222167968752	-465.2257690429689	49.19716262817384	-752.9171142578126	-247.2080535888672	53.58121871948244	-754.6966552734376	-246.6543426513672	58.07645797729494	-702.3450927734376	-291.8327026367188	37.08039093017579	-653.8611450195314	-4216.831542968751	853.1741333007815	-3944.604248046876	
